<svg xmlns="http://www.w3.org/2000/svg" xmlns:xlink="http://www.w3.org/1999/xlink" width="500" zoomAndPan="magnify" viewBox="0 0 375 374.999991" height="500" preserveAspectRatio="xMidYMid meet" version="1.2"><defs><clipPath id="421ca73bee"><path d="M 10.449219 12.109375 L 364 12.109375 L 364 362.890625 L 10.449219 362.890625 Z M 10.449219 12.109375 "/></clipPath><clipPath id="07256efa79"><path d="M 16.449219 12.109375 L 358.550781 12.109375 C 360.140625 12.109375 361.667969 12.742188 362.792969 13.867188 C 363.917969 14.992188 364.550781 16.519531 364.550781 18.109375 L 364.550781 356.890625 C 364.550781 358.480469 363.917969 360.007812 362.792969 361.132812 C 361.667969 362.257812 360.140625 362.890625 358.550781 362.890625 L 16.449219 362.890625 C 14.859375 362.890625 13.332031 362.257812 12.207031 361.132812 C 11.082031 360.007812 10.449219 358.480469 10.449219 356.890625 L 10.449219 18.109375 C 10.449219 16.519531 11.082031 14.992188 12.207031 13.867188 C 13.332031 12.742188 14.859375 12.109375 16.449219 12.109375 Z M 16.449219 12.109375 "/></clipPath><clipPath id="77ad7e9358"><path d="M 10.449219 12.117188 L 364 12.117188 L 364 361.785156 L 10.449219 361.785156 Z M 10.449219 12.117188 "/></clipPath><clipPath id="6478fc20e8"><path d="M 16.429688 12.117188 L 357.4375 12.117188 C 359.023438 12.117188 360.542969 12.75 361.664062 13.871094 C 362.785156 14.992188 363.417969 16.511719 363.417969 18.101562 L 363.417969 355.796875 C 363.417969 357.382812 362.785156 358.902344 361.664062 360.023438 C 360.542969 361.144531 359.023438 361.777344 357.4375 361.777344 L 16.429688 361.777344 C 14.84375 361.777344 13.324219 361.144531 12.199219 360.023438 C 11.078125 358.902344 10.449219 357.382812 10.449219 355.796875 L 10.449219 18.101562 C 10.449219 16.511719 11.078125 14.992188 12.199219 13.871094 C 13.324219 12.75 14.84375 12.117188 16.429688 12.117188 Z M 16.429688 12.117188 "/></clipPath><clipPath id="2b16eb276b"><path d="M 69.402344 51.167969 L 305.871094 51.167969 L 305.871094 322.855469 L 69.402344 322.855469 Z M 69.402344 51.167969 "/></clipPath></defs><g id="d636e4e31c"><g clip-rule="nonzero" clip-path="url(#421ca73bee)"><g clip-rule="nonzero" clip-path="url(#07256efa79)"><path style=" stroke:none;fill-rule:nonzero;fill:#f6f6f6;fill-opacity:1;" d="M 10.449219 12.109375 L 363.96875 12.109375 L 363.96875 362.890625 L 10.449219 362.890625 Z M 10.449219 12.109375 "/></g></g><g clip-rule="nonzero" clip-path="url(#77ad7e9358)"><g clip-rule="nonzero" clip-path="url(#6478fc20e8)"><path style="fill:none;stroke-width:8.943995;stroke-linecap:butt;stroke-linejoin:miter;stroke:#192a37;stroke-opacity:1;stroke-miterlimit:4;" d="M 2.384807 -0.000739729 L 138.36579 -0.000739729 C 138.998201 -0.000739729 139.604133 0.251602 140.051182 0.698652 C 140.498232 1.145701 140.750574 1.751633 140.750574 2.385602 L 140.750574 137.045685 C 140.750574 137.678097 140.498232 138.284028 140.051182 138.731078 C 139.604133 139.178128 138.998201 139.430469 138.36579 139.430469 L 2.384807 139.430469 C 1.752395 139.430469 1.146464 139.178128 0.697857 138.731078 C 0.250807 138.284028 0.000023023 137.678097 0.000023023 137.045685 L 0.000023023 2.385602 C 0.000023023 1.751633 0.250807 1.145701 0.697857 0.698652 C 1.146464 0.251602 1.752395 -0.000739729 2.384807 -0.000739729 Z M 2.384807 -0.000739729 " transform="matrix(2.507761,0,0,2.507761,10.449161,12.119043)"/></g></g><path style=" stroke:none;fill-rule:nonzero;fill:#aaa8af;fill-opacity:1;" d="M 264.945312 60.269531 L 264.945312 205.117188 C 264.945312 207.609375 262.902344 209.644531 260.398438 209.644531 L 114.875 209.644531 C 112.371094 209.644531 110.328125 207.609375 110.328125 205.117188 L 110.328125 60.269531 C 110.328125 57.777344 112.371094 55.742188 114.875 55.742188 L 260.398438 55.742188 C 262.902344 55.742188 264.945312 57.777344 264.945312 60.269531 "/><path style=" stroke:none;fill-rule:nonzero;fill:#aaa8af;fill-opacity:1;" d="M 73.949219 318.28125 L 73.949219 245.855469 L 301.324219 245.855469 L 301.324219 318.28125 L 73.949219 318.28125 "/><path style=" stroke:none;fill-rule:nonzero;fill:#aaa8af;fill-opacity:1;" d="M 214.921875 209.644531 L 214.921875 227.75 L 160.351562 227.75 L 160.351562 209.644531 L 214.921875 209.644531 "/><path style=" stroke:none;fill-rule:nonzero;fill:#84848e;fill-opacity:1;" d="M 251.300781 236.804688 L 251.300781 245.855469 L 123.972656 245.855469 L 123.972656 236.804688 L 133.066406 227.75 L 242.207031 227.75 L 251.300781 236.804688 "/><path style=" stroke:none;fill-rule:nonzero;fill:#6caae1;fill-opacity:1;" d="M 246.753906 73.847656 L 246.753906 173.433594 L 128.519531 173.433594 L 128.519531 73.847656 L 246.753906 73.847656 "/><path style=" stroke:none;fill-rule:nonzero;fill:#5798d8;fill-opacity:1;" d="M 246.753906 88.789062 L 246.753906 173.433594 L 157.847656 173.433594 C 174.171875 161.972656 217.195312 129.617188 246.753906 88.789062 "/><path style=" stroke:none;fill-rule:nonzero;fill:#84848e;fill-opacity:1;" d="M 160.351562 209.644531 L 160.351562 218.695312 L 214.921875 218.695312 L 214.921875 209.644531 L 160.351562 209.644531 "/><g clip-rule="nonzero" clip-path="url(#2b16eb276b)"><path style=" stroke:none;fill-rule:nonzero;fill:#100f0d;fill-opacity:1;" d="M 296.777344 313.753906 L 78.496094 313.753906 L 78.496094 250.382812 L 296.777344 250.382812 Z M 128.519531 238.660156 L 134.929688 232.277344 L 240.34375 232.277344 L 246.753906 238.660156 L 246.753906 241.328125 L 128.519531 241.328125 Z M 210.375 214.171875 L 210.375 223.222656 L 164.898438 223.222656 L 164.898438 214.171875 Z M 114.875 205.117188 L 114.875 60.269531 L 260.398438 60.269531 L 260.398438 205.117188 Z M 301.324219 241.328125 L 255.847656 241.328125 L 255.847656 236.804688 C 255.847656 235.582031 255.351562 234.453125 254.535156 233.585938 L 245.441406 224.53125 C 244.570312 223.71875 243.433594 223.222656 242.207031 223.222656 L 219.46875 223.222656 L 219.46875 214.171875 L 260.398438 214.171875 C 265.40625 214.171875 269.492188 210.085938 269.492188 205.117188 L 269.492188 60.269531 C 269.492188 55.300781 265.40625 51.214844 260.398438 51.214844 L 114.875 51.214844 C 109.867188 51.214844 105.78125 55.300781 105.78125 60.269531 L 105.78125 205.117188 C 105.78125 210.085938 109.867188 214.171875 114.875 214.171875 L 155.804688 214.171875 L 155.804688 223.222656 L 133.066406 223.222656 C 131.839844 223.222656 130.703125 223.71875 129.832031 224.53125 L 120.738281 233.585938 C 119.921875 234.453125 119.421875 235.582031 119.421875 236.804688 L 119.421875 241.328125 L 73.949219 241.328125 C 71.445312 241.328125 69.402344 243.363281 69.402344 245.855469 L 69.402344 318.28125 C 69.402344 320.773438 71.445312 322.808594 73.949219 322.808594 L 301.324219 322.808594 C 303.828125 322.808594 305.871094 320.773438 305.871094 318.28125 L 305.871094 245.855469 C 305.871094 243.363281 303.828125 241.328125 301.324219 241.328125 "/></g><path style=" stroke:none;fill-rule:nonzero;fill:#100f0d;fill-opacity:1;" d="M 242.207031 168.90625 L 133.066406 168.90625 L 133.066406 78.375 L 242.207031 78.375 Z M 251.300781 173.433594 L 251.300781 73.847656 C 251.300781 71.355469 249.257812 69.320312 246.753906 69.320312 L 128.519531 69.320312 C 126.015625 69.320312 123.972656 71.355469 123.972656 73.847656 L 123.972656 173.433594 C 123.972656 175.925781 126.015625 177.957031 128.519531 177.957031 L 246.753906 177.957031 C 249.257812 177.957031 251.300781 175.925781 251.300781 173.433594 "/><path style=" stroke:none;fill-rule:nonzero;fill:#100f0d;fill-opacity:1;" d="M 233.113281 196.066406 L 242.207031 196.066406 L 242.207031 187.011719 L 233.113281 187.011719 L 233.113281 196.066406 "/><path style=" stroke:none;fill-rule:nonzero;fill:#100f0d;fill-opacity:1;" d="M 214.921875 196.066406 L 224.015625 196.066406 L 224.015625 187.011719 L 214.921875 187.011719 L 214.921875 196.066406 "/><path style=" stroke:none;fill-rule:nonzero;fill:#100f0d;fill-opacity:1;" d="M 151.257812 96.480469 L 164.898438 96.480469 L 164.898438 87.429688 L 151.257812 87.429688 C 146.246094 87.429688 142.160156 91.496094 142.160156 96.480469 L 142.160156 110.0625 L 151.257812 110.0625 L 151.257812 96.480469 "/><path style=" stroke:none;fill-rule:nonzero;fill:#100f0d;fill-opacity:1;" d="M 151.257812 119.113281 L 142.160156 119.113281 L 142.160156 128.167969 L 151.257812 128.167969 L 151.257812 119.113281 "/><path style=" stroke:none;fill-rule:nonzero;fill:#100f0d;fill-opacity:1;" d="M 224.015625 263.960938 L 214.921875 263.960938 L 214.921875 268.488281 L 205.828125 268.488281 L 205.828125 277.542969 L 214.921875 277.542969 L 214.921875 282.070312 L 224.015625 282.070312 L 224.015625 277.542969 L 278.585938 277.542969 L 278.585938 268.488281 L 224.015625 268.488281 L 224.015625 263.960938 "/><path style=" stroke:none;fill-rule:nonzero;fill:#100f0d;fill-opacity:1;" d="M 105.78125 259.4375 L 96.6875 259.4375 L 96.6875 268.488281 L 105.78125 268.488281 L 105.78125 259.4375 "/><path style=" stroke:none;fill-rule:nonzero;fill:#100f0d;fill-opacity:1;" d="M 123.972656 259.4375 L 114.875 259.4375 L 114.875 268.488281 L 123.972656 268.488281 L 123.972656 259.4375 "/><path style=" stroke:none;fill-rule:nonzero;fill:#100f0d;fill-opacity:1;" d="M 87.589844 286.59375 L 151.257812 286.59375 L 151.257812 277.542969 L 87.589844 277.542969 L 87.589844 286.59375 "/><path style=" stroke:none;fill-rule:nonzero;fill:#100f0d;fill-opacity:1;" d="M 87.589844 304.699219 L 151.257812 304.699219 L 151.257812 295.648438 L 87.589844 295.648438 L 87.589844 304.699219 "/></g></svg>