<svg xmlns="http://www.w3.org/2000/svg" xmlns:xlink="http://www.w3.org/1999/xlink" width="500" zoomAndPan="magnify" viewBox="0 0 375 374.999991" height="500" preserveAspectRatio="xMidYMid meet" version="1.2"><defs><clipPath id="0102bf0c76"><path d="M 10.449219 12.109375 L 364 12.109375 L 364 362.890625 L 10.449219 362.890625 Z M 10.449219 12.109375 "/></clipPath><clipPath id="1f9bceb6af"><path d="M 37.449219 12.109375 L 337.550781 12.109375 C 352.460938 12.109375 364.550781 24.199219 364.550781 39.109375 L 364.550781 335.890625 C 364.550781 350.800781 352.460938 362.890625 337.550781 362.890625 L 37.449219 362.890625 C 22.539062 362.890625 10.449219 350.800781 10.449219 335.890625 L 10.449219 39.109375 C 10.449219 24.199219 22.539062 12.109375 37.449219 12.109375 Z M 37.449219 12.109375 "/></clipPath><clipPath id="ab396b838c"><path d="M 10.449219 12.117188 L 364 12.117188 L 364 361.785156 L 10.449219 361.785156 Z M 10.449219 12.117188 "/></clipPath><clipPath id="c33e3b17df"><path d="M 37.363281 12.117188 L 336.503906 12.117188 C 351.367188 12.117188 363.417969 24.167969 363.417969 39.03125 L 363.417969 334.863281 C 363.417969 349.726562 351.367188 361.777344 336.503906 361.777344 L 37.363281 361.777344 C 22.5 361.777344 10.449219 349.726562 10.449219 334.863281 L 10.449219 39.03125 C 10.449219 24.167969 22.5 12.117188 37.363281 12.117188 Z M 37.363281 12.117188 "/></clipPath><clipPath id="b914a82f60"><path d="M 69.402344 51.167969 L 305.871094 51.167969 L 305.871094 322.855469 L 69.402344 322.855469 Z M 69.402344 51.167969 "/></clipPath></defs><g id="2100623d28"><g clip-rule="nonzero" clip-path="url(#0102bf0c76)"><g clip-rule="nonzero" clip-path="url(#1f9bceb6af)"><path style=" stroke:none;fill-rule:nonzero;fill:#f6f6f6;fill-opacity:1;" d="M 10.449219 12.109375 L 363.96875 12.109375 L 363.96875 362.890625 L 10.449219 362.890625 Z M 10.449219 12.109375 "/></g></g><g clip-rule="nonzero" clip-path="url(#ab396b838c)"><g clip-rule="nonzero" clip-path="url(#c33e3b17df)"><path style="fill:none;stroke-width:18.484255;stroke-linecap:butt;stroke-linejoin:miter;stroke:#192a37;stroke-opacity:1;stroke-miterlimit:4;" d="M 10.73233 -0.000739729 L 130.018266 -0.000739729 C 135.945179 -0.000739729 140.750574 4.804655 140.750574 10.731568 L 140.750574 128.698162 C 140.750574 134.625075 135.945179 139.430469 130.018266 139.430469 L 10.73233 139.430469 C 4.805418 139.430469 0.000023023 134.625075 0.000023023 128.698162 L 0.000023023 10.731568 C 0.000023023 4.804655 4.805418 -0.000739729 10.73233 -0.000739729 Z M 10.73233 -0.000739729 " transform="matrix(2.507761,0,0,2.507761,10.449161,12.119043)"/></g></g><path style=" stroke:none;fill-rule:nonzero;fill:#aaa8af;fill-opacity:1;" d="M 264.945312 60.269531 L 264.945312 205.117188 C 264.945312 207.609375 262.902344 209.644531 260.398438 209.644531 L 114.875 209.644531 C 112.371094 209.644531 110.328125 207.609375 110.328125 205.117188 L 110.328125 60.269531 C 110.328125 57.777344 112.371094 55.742188 114.875 55.742188 L 260.398438 55.742188 C 262.902344 55.742188 264.945312 57.777344 264.945312 60.269531 "/><path style=" stroke:none;fill-rule:nonzero;fill:#aaa8af;fill-opacity:1;" d="M 73.949219 318.28125 L 73.949219 245.855469 L 301.324219 245.855469 L 301.324219 318.28125 L 73.949219 318.28125 "/><path style=" stroke:none;fill-rule:nonzero;fill:#aaa8af;fill-opacity:1;" d="M 214.921875 209.644531 L 214.921875 227.75 L 160.351562 227.75 L 160.351562 209.644531 L 214.921875 209.644531 "/><path style=" stroke:none;fill-rule:nonzero;fill:#84848e;fill-opacity:1;" d="M 251.300781 236.804688 L 251.300781 245.855469 L 123.972656 245.855469 L 123.972656 236.804688 L 133.066406 227.75 L 242.207031 227.75 L 251.300781 236.804688 "/><path style=" stroke:none;fill-rule:nonzero;fill:#6caae1;fill-opacity:1;" d="M 246.753906 73.847656 L 246.753906 173.433594 L 128.519531 173.433594 L 128.519531 73.847656 L 246.753906 73.847656 "/><path style=" stroke:none;fill-rule:nonzero;fill:#5798d8;fill-opacity:1;" d="M 246.753906 88.789062 L 246.753906 173.433594 L 157.847656 173.433594 C 174.171875 161.972656 217.195312 129.617188 246.753906 88.789062 "/><path style=" stroke:none;fill-rule:nonzero;fill:#84848e;fill-opacity:1;" d="M 160.351562 209.644531 L 160.351562 218.695312 L 214.921875 218.695312 L 214.921875 209.644531 L 160.351562 209.644531 "/><g clip-rule="nonzero" clip-path="url(#b914a82f60)"><path style=" stroke:none;fill-rule:nonzero;fill:#100f0d;fill-opacity:1;" d="M 296.777344 313.753906 L 78.496094 313.753906 L 78.496094 250.382812 L 296.777344 250.382812 Z M 128.519531 238.660156 L 134.929688 232.277344 L 240.34375 232.277344 L 246.753906 238.660156 L 246.753906 241.328125 L 128.519531 241.328125 Z M 210.375 214.171875 L 210.375 223.222656 L 164.898438 223.222656 L 164.898438 214.171875 Z M 114.875 205.117188 L 114.875 60.269531 L 260.398438 60.269531 L 260.398438 205.117188 Z M 301.324219 241.328125 L 255.847656 241.328125 L 255.847656 236.804688 C 255.847656 235.582031 255.351562 234.453125 254.535156 233.585938 L 245.441406 224.53125 C 244.570312 223.71875 243.433594 223.222656 242.207031 223.222656 L 219.46875 223.222656 L 219.46875 214.171875 L 260.398438 214.171875 C 265.40625 214.171875 269.492188 210.085938 269.492188 205.117188 L 269.492188 60.269531 C 269.492188 55.300781 265.40625 51.214844 260.398438 51.214844 L 114.875 51.214844 C 109.867188 51.214844 105.78125 55.300781 105.78125 60.269531 L 105.78125 205.117188 C 105.78125 210.085938 109.867188 214.171875 114.875 214.171875 L 155.804688 214.171875 L 155.804688 223.222656 L 133.066406 223.222656 C 131.839844 223.222656 130.703125 223.71875 129.832031 224.53125 L 120.738281 233.585938 C 119.921875 234.453125 119.421875 235.582031 119.421875 236.804688 L 119.421875 241.328125 L 73.949219 241.328125 C 71.445312 241.328125 69.402344 243.363281 69.402344 245.855469 L 69.402344 318.28125 C 69.402344 320.773438 71.445312 322.808594 73.949219 322.808594 L 301.324219 322.808594 C 303.828125 322.808594 305.871094 320.773438 305.871094 318.28125 L 305.871094 245.855469 C 305.871094 243.363281 303.828125 241.328125 301.324219 241.328125 "/></g><path style=" stroke:none;fill-rule:nonzero;fill:#100f0d;fill-opacity:1;" d="M 242.207031 168.90625 L 133.066406 168.90625 L 133.066406 78.375 L 242.207031 78.375 Z M 251.300781 173.433594 L 251.300781 73.847656 C 251.300781 71.355469 249.257812 69.320312 246.753906 69.320312 L 128.519531 69.320312 C 126.015625 69.320312 123.972656 71.355469 123.972656 73.847656 L 123.972656 173.433594 C 123.972656 175.925781 126.015625 177.957031 128.519531 177.957031 L 246.753906 177.957031 C 249.257812 177.957031 251.300781 175.925781 251.300781 173.433594 "/><path style=" stroke:none;fill-rule:nonzero;fill:#100f0d;fill-opacity:1;" d="M 233.113281 196.066406 L 242.207031 196.066406 L 242.207031 187.011719 L 233.113281 187.011719 L 233.113281 196.066406 "/><path style=" stroke:none;fill-rule:nonzero;fill:#100f0d;fill-opacity:1;" d="M 214.921875 196.066406 L 224.015625 196.066406 L 224.015625 187.011719 L 214.921875 187.011719 L 214.921875 196.066406 "/><path style=" stroke:none;fill-rule:nonzero;fill:#100f0d;fill-opacity:1;" d="M 151.257812 96.480469 L 164.898438 96.480469 L 164.898438 87.429688 L 151.257812 87.429688 C 146.246094 87.429688 142.160156 91.496094 142.160156 96.480469 L 142.160156 110.0625 L 151.257812 110.0625 L 151.257812 96.480469 "/><path style=" stroke:none;fill-rule:nonzero;fill:#100f0d;fill-opacity:1;" d="M 151.257812 119.113281 L 142.160156 119.113281 L 142.160156 128.167969 L 151.257812 128.167969 L 151.257812 119.113281 "/><path style=" stroke:none;fill-rule:nonzero;fill:#100f0d;fill-opacity:1;" d="M 224.015625 263.960938 L 214.921875 263.960938 L 214.921875 268.488281 L 205.828125 268.488281 L 205.828125 277.542969 L 214.921875 277.542969 L 214.921875 282.070312 L 224.015625 282.070312 L 224.015625 277.542969 L 278.585938 277.542969 L 278.585938 268.488281 L 224.015625 268.488281 L 224.015625 263.960938 "/><path style=" stroke:none;fill-rule:nonzero;fill:#100f0d;fill-opacity:1;" d="M 105.78125 259.4375 L 96.6875 259.4375 L 96.6875 268.488281 L 105.78125 268.488281 L 105.78125 259.4375 "/><path style=" stroke:none;fill-rule:nonzero;fill:#100f0d;fill-opacity:1;" d="M 123.972656 259.4375 L 114.875 259.4375 L 114.875 268.488281 L 123.972656 268.488281 L 123.972656 259.4375 "/><path style=" stroke:none;fill-rule:nonzero;fill:#100f0d;fill-opacity:1;" d="M 87.589844 286.59375 L 151.257812 286.59375 L 151.257812 277.542969 L 87.589844 277.542969 L 87.589844 286.59375 "/><path style=" stroke:none;fill-rule:nonzero;fill:#100f0d;fill-opacity:1;" d="M 87.589844 304.699219 L 151.257812 304.699219 L 151.257812 295.648438 L 87.589844 295.648438 L 87.589844 304.699219 "/></g></svg>