<svg xmlns="http://www.w3.org/2000/svg" xmlns:xlink="http://www.w3.org/1999/xlink" width="50" zoomAndPan="magnify" viewBox="0 0 37.5 37.499999" height="50" preserveAspectRatio="xMidYMid meet" version="1.2"><defs><clipPath id="998c679f34"><path d="M 1.535156 1.535156 L 35.472656 1.535156 L 35.472656 35.472656 L 1.535156 35.472656 Z M 1.535156 1.535156 "/></clipPath><clipPath id="25fc57f75d"><path d="M 18.503906 1.535156 C 9.132812 1.535156 1.535156 9.132812 1.535156 18.503906 C 1.535156 27.875 9.132812 35.472656 18.503906 35.472656 C 27.875 35.472656 35.472656 27.875 35.472656 18.503906 C 35.472656 9.132812 27.875 1.535156 18.503906 1.535156 Z M 18.503906 1.535156 "/></clipPath><clipPath id="85a5e00749"><path d="M 0.535156 0.535156 L 34.472656 0.535156 L 34.472656 34.472656 L 0.535156 34.472656 Z M 0.535156 0.535156 "/></clipPath><clipPath id="a683182772"><path d="M 17.503906 0.535156 C 8.132812 0.535156 0.535156 8.132812 0.535156 17.503906 C 0.535156 26.875 8.132812 34.472656 17.503906 34.472656 C 26.875 34.472656 34.472656 26.875 34.472656 17.503906 C 34.472656 8.132812 26.875 0.535156 17.503906 0.535156 Z M 17.503906 0.535156 "/></clipPath><clipPath id="38bbec5f4a"><rect x="0" width="35" y="0" height="35"/></clipPath><clipPath id="e8afa07d5a"><path d="M 7.230469 5.59375 L 29.433594 5.59375 L 29.433594 27.796875 L 7.230469 27.796875 Z M 7.230469 5.59375 "/></clipPath></defs><g id="1f1e258856"><g clip-rule="nonzero" clip-path="url(#998c679f34)"><g clip-rule="nonzero" clip-path="url(#25fc57f75d)"><g transform="matrix(1,0,0,1,1,1)"><g clip-path="url(#38bbec5f4a)"><g clip-rule="nonzero" clip-path="url(#85a5e00749)"><g clip-rule="nonzero" clip-path="url(#a683182772)"><path style=" stroke:none;fill-rule:nonzero;fill:#d9d9d9;fill-opacity:1;" d="M 0.535156 0.535156 L 34.472656 0.535156 L 34.472656 34.472656 L 0.535156 34.472656 Z M 0.535156 0.535156 "/></g></g></g></g></g></g><g clip-rule="nonzero" clip-path="url(#e8afa07d5a)"><path style=" stroke:none;fill-rule:nonzero;fill:#1800ad;fill-opacity:1;" d="M 23.328125 12.398438 L 18.988281 6.003906 C 18.609375 5.449219 18.011719 5.460938 17.65625 6.027344 L 13.652344 12.375 C 13.296875 12.941406 13.539062 13.40625 14.195312 13.40625 L 15.367188 13.40625 L 15.367188 15.613281 C 15.367188 15.777344 15.398438 15.9375 15.464844 16.089844 C 15.527344 16.246094 15.617188 16.378906 15.734375 16.496094 C 15.851562 16.613281 15.988281 16.707031 16.140625 16.769531 C 16.292969 16.832031 16.453125 16.863281 16.621094 16.863281 L 20.378906 16.863281 C 20.542969 16.863281 20.703125 16.832031 20.855469 16.769531 C 21.007812 16.707031 21.144531 16.613281 21.261719 16.496094 C 21.378906 16.378906 21.46875 16.246094 21.535156 16.089844 C 21.597656 15.9375 21.628906 15.777344 21.628906 15.613281 L 21.628906 13.40625 L 22.816406 13.40625 C 23.472656 13.40625 23.703125 12.953125 23.328125 12.398438 Z M 9.515625 20.355469 L 8.128906 20.355469 C 7.519531 20.355469 7.265625 19.910156 7.265625 19.476562 C 7.265625 19.03125 7.582031 18.601562 8.128906 18.601562 L 12.804688 18.601562 C 13.351562 18.601562 13.671875 19.03125 13.671875 19.476562 C 13.671875 19.910156 13.417969 20.355469 12.804688 20.355469 L 11.421875 20.355469 L 11.421875 26.734375 C 11.421875 27.371094 11.015625 27.726562 10.46875 27.726562 C 9.921875 27.726562 9.515625 27.371094 9.515625 26.734375 Z M 13.738281 23.125 C 13.738281 20.480469 15.515625 18.449219 18.109375 18.449219 C 20.664062 18.449219 22.480469 20.546875 22.480469 23.125 C 22.480469 25.753906 20.714844 27.800781 18.109375 27.800781 C 15.527344 27.800781 13.738281 25.753906 13.738281 23.125 Z M 20.5 23.125 C 20.5 21.585938 19.699219 20.203125 18.109375 20.203125 C 16.519531 20.203125 15.71875 21.585938 15.71875 23.125 C 15.71875 24.675781 16.496094 26.046875 18.109375 26.046875 C 19.722656 26.046875 20.5 24.675781 20.5 23.125 Z M 23.273438 19.589844 C 23.273438 18.992188 23.628906 18.601562 24.265625 18.601562 L 26.515625 18.601562 C 28.382812 18.601562 29.769531 19.820312 29.769531 21.636719 C 29.769531 23.492188 28.332031 24.648438 26.589844 24.648438 L 25.179688 24.648438 L 25.179688 26.734375 C 25.179688 27.371094 24.773438 27.726562 24.230469 27.726562 C 23.683594 27.726562 23.273438 27.371094 23.273438 26.734375 Z M 25.179688 22.972656 L 26.476562 22.972656 C 27.277344 22.972656 27.785156 22.386719 27.785156 21.625 C 27.785156 20.863281 27.277344 20.277344 26.476562 20.277344 L 25.179688 20.277344 Z M 25.179688 22.972656 "/></g></g></svg>