<svg xmlns="http://www.w3.org/2000/svg" xmlns:xlink="http://www.w3.org/1999/xlink" width="50" zoomAndPan="magnify" viewBox="0 0 37.5 37.499999" height="50" preserveAspectRatio="xMidYMid meet" version="1.2"><defs><clipPath id="09af3116f6"><path d="M 0 0 L 37.007812 0 L 37.007812 37.007812 L 0 37.007812 Z M 0 0 "/></clipPath><clipPath id="4e2aafa663"><path d="M 7.363281 8.4375 L 29.640625 8.4375 L 29.640625 30.714844 L 7.363281 30.714844 Z M 7.363281 8.4375 "/></clipPath><clipPath id="740aa4c82a"><path d="M 18.503906 8.4375 C 12.351562 8.4375 7.363281 13.425781 7.363281 19.578125 C 7.363281 25.726562 12.351562 30.714844 18.503906 30.714844 C 24.65625 30.714844 29.640625 25.726562 29.640625 19.578125 C 29.640625 13.425781 24.65625 8.4375 18.503906 8.4375 Z M 18.503906 8.4375 "/></clipPath><clipPath id="0625915785"><path d="M 0.363281 0.4375 L 22.640625 0.4375 L 22.640625 22.714844 L 0.363281 22.714844 Z M 0.363281 0.4375 "/></clipPath><clipPath id="49a768890b"><path d="M 11.503906 0.4375 C 5.351562 0.4375 0.363281 5.425781 0.363281 11.578125 C 0.363281 17.726562 5.351562 22.714844 11.503906 22.714844 C 17.65625 22.714844 22.640625 17.726562 22.640625 11.578125 C 22.640625 5.425781 17.65625 0.4375 11.503906 0.4375 Z M 11.503906 0.4375 "/></clipPath><clipPath id="520bfdc4c2"><rect x="0" width="23" y="0" height="23"/></clipPath><clipPath id="facf3a5d65"><path d="M 11.101562 11.101562 L 25.90625 11.101562 L 25.90625 25.90625 L 11.101562 25.90625 Z M 11.101562 11.101562 "/></clipPath></defs><g id="da76a846f9"><g clip-rule="nonzero" clip-path="url(#09af3116f6)"><path style=" stroke:none;fill-rule:nonzero;fill:#ffffff;fill-opacity:1;" d="M 0 0 L 37.007812 0 L 37.007812 37.007812 L 0 37.007812 Z M 0 0 "/><path style=" stroke:none;fill-rule:nonzero;fill:#ffffff;fill-opacity:1;" d="M 0 0 L 37.007812 0 L 37.007812 37.007812 L 0 37.007812 Z M 0 0 "/></g><g clip-rule="nonzero" clip-path="url(#4e2aafa663)"><g clip-rule="nonzero" clip-path="url(#740aa4c82a)"><g transform="matrix(1,0,0,1,7,8)"><g clip-path="url(#520bfdc4c2)"><g clip-rule="nonzero" clip-path="url(#0625915785)"><g clip-rule="nonzero" clip-path="url(#49a768890b)"><path style=" stroke:none;fill-rule:nonzero;fill:#d9d9d9;fill-opacity:1;" d="M 0.363281 0.4375 L 22.640625 0.4375 L 22.640625 22.714844 L 0.363281 22.714844 Z M 0.363281 0.4375 "/></g></g></g></g></g></g><g clip-rule="nonzero" clip-path="url(#facf3a5d65)"><path style=" stroke:none;fill-rule:nonzero;fill:#1800ad;fill-opacity:1;" d="M 21.675781 15.570312 L 18.824219 11.371094 C 18.574219 11.007812 18.183594 11.011719 17.949219 11.386719 L 15.320312 15.554688 C 15.085938 15.925781 15.246094 16.230469 15.675781 16.230469 L 16.449219 16.230469 L 16.449219 17.679688 C 16.449219 17.90625 16.527344 18.101562 16.6875 18.261719 C 16.847656 18.421875 17.042969 18.503906 17.269531 18.503906 L 19.738281 18.503906 C 19.964844 18.503906 20.15625 18.421875 20.316406 18.261719 C 20.480469 18.101562 20.558594 17.90625 20.558594 17.679688 L 20.558594 16.230469 L 21.339844 16.230469 C 21.769531 16.230469 21.921875 15.933594 21.675781 15.570312 Z M 12.601562 20.796875 L 11.691406 20.796875 C 11.292969 20.796875 11.125 20.503906 11.125 20.21875 C 11.125 19.925781 11.335938 19.644531 11.691406 19.644531 L 14.765625 19.644531 C 15.125 19.644531 15.332031 19.925781 15.332031 20.21875 C 15.332031 20.503906 15.164062 20.796875 14.765625 20.796875 L 13.855469 20.796875 L 13.855469 24.984375 C 13.855469 25.402344 13.589844 25.636719 13.230469 25.636719 C 12.871094 25.636719 12.605469 25.402344 12.605469 24.984375 L 12.605469 20.796875 Z M 15.375 22.613281 C 15.375 20.878906 16.542969 19.542969 18.246094 19.542969 C 19.925781 19.542969 21.117188 20.921875 21.117188 22.613281 C 21.117188 24.34375 19.957031 25.6875 18.246094 25.6875 C 16.554688 25.6875 15.375 24.34375 15.375 22.613281 Z M 19.816406 22.613281 C 19.816406 21.605469 19.289062 20.695312 18.246094 20.695312 C 17.203125 20.695312 16.679688 21.605469 16.679688 22.613281 C 16.679688 23.632812 17.1875 24.535156 18.246094 24.535156 C 19.308594 24.535156 19.816406 23.632812 19.816406 22.613281 Z M 21.640625 20.292969 C 21.640625 19.902344 21.875 19.644531 22.292969 19.644531 L 23.769531 19.644531 C 24.996094 19.644531 25.90625 20.445312 25.90625 21.636719 C 25.90625 22.855469 24.960938 23.617188 23.816406 23.617188 L 22.890625 23.617188 L 22.890625 24.984375 C 22.890625 25.402344 22.625 25.636719 22.265625 25.636719 C 21.90625 25.636719 21.640625 25.402344 21.640625 24.984375 Z M 22.890625 22.515625 L 23.742188 22.515625 C 24.269531 22.515625 24.601562 22.128906 24.601562 21.628906 C 24.601562 21.128906 24.269531 20.746094 23.742188 20.746094 L 22.890625 20.746094 Z M 22.890625 22.515625 "/></g></g></svg>