<svg version="1.1" id="Layer_1" xmlns="http://www.w3.org/2000/svg" xmlns:xlink="http://www.w3.org/1999/xlink" x="0px" y="0px"
	 width="100%" viewBox="0 0 500 500" enable-background="new 0 0 500 500" xml:space="preserve">
<path fill="none" opacity="1.000000" stroke="none" 
	d="
M223.000000,501.000000 
	C148.666687,501.000000 74.833366,501.000000 1.000040,501.000000 
	C1.000026,334.333405 1.000026,167.666779 1.000013,1.000129 
	C167.666565,1.000086 334.333130,1.000086 500.999756,1.000043 
	C500.999847,167.666534 500.999847,334.333069 500.999939,500.999817 
	C408.500000,501.000000 316.000000,501.000000 223.000000,501.000000 
M172.500000,183.000000 
	C141.510071,183.000626 110.520111,182.981247 79.530212,183.013931 
	C70.157745,183.023819 65.009956,188.148132 65.004807,197.316483 
	C64.994690,215.310638 64.840454,233.307693 65.162949,251.296066 
	C65.215889,254.248734 66.901604,257.520844 68.703461,260.016693 
	C71.894592,264.436920 76.973221,264.985260 82.065926,264.985016 
	C193.696350,264.979614 305.326782,264.980743 416.957214,264.980774 
	C418.456726,264.980774 419.956512,265.001404 421.455688,264.979523 
	C429.993805,264.854919 437.675232,258.971252 437.215240,249.266602 
	C436.427307,232.642700 436.997742,215.954407 436.997620,199.293152 
	C436.997528,187.606720 432.319000,183.001648 420.419830,183.001328 
	C338.113220,182.999115 255.806610,183.000061 172.500000,183.000000 
z"/>
<path fill="#1902AD" opacity="1.000000" stroke="none" 
	d="
M173.000000,183.000000 
	C255.806610,183.000061 338.113220,182.999115 420.419830,183.001328 
	C432.319000,183.001648 436.997528,187.606720 436.997620,199.293152 
	C436.997742,215.954407 436.427307,232.642700 437.215240,249.266602 
	C437.675232,258.971252 429.993805,264.854919 421.455688,264.979523 
	C419.956512,265.001404 418.456726,264.980774 416.957214,264.980774 
	C305.326782,264.980743 193.696350,264.979614 82.065926,264.985016 
	C76.973221,264.985260 71.894592,264.436920 68.703461,260.016693 
	C66.901604,257.520844 65.215889,254.248734 65.162949,251.296066 
	C64.840454,233.307693 64.994690,215.310638 65.004807,197.316483 
	C65.009956,188.148132 70.157745,183.023819 79.530212,183.013931 
	C110.520111,182.981247 141.510071,183.000626 173.000000,183.000000 
M164.229980,203.313766 
	C151.647675,191.896881 135.431580,195.449310 128.938904,210.910446 
	C128.364563,212.278122 126.636047,213.457077 125.170181,214.107208 
	C114.168961,218.986435 111.220047,232.719055 119.269943,241.638306 
	C125.110275,248.109406 132.729309,247.148926 140.185135,246.823349 
	C140.820480,246.795609 142.004974,245.404129 141.879318,244.919968 
	C141.649460,244.034210 140.705429,242.794235 139.927155,242.690231 
	C137.469635,242.361816 134.951157,242.476318 132.455948,242.445801 
	C125.155624,242.356537 120.186234,238.257385 119.230042,231.519760 
	C118.341164,225.256409 122.120178,220.019348 128.781204,217.643845 
	C130.372528,217.076324 132.259735,215.579773 132.788254,214.079742 
	C135.918900,205.194473 142.385223,200.274185 150.474258,201.113022 
	C158.931549,201.990067 164.542892,208.285278 165.007599,217.877258 
	C165.141037,220.631195 166.079803,221.601257 168.736618,221.978394 
	C175.124390,222.885117 178.732224,226.938431 178.495621,232.458328 
	C178.248306,238.227661 174.050583,242.072189 167.474411,242.402740 
	C164.650040,242.544708 161.788773,242.237106 158.994949,242.565262 
	C157.846756,242.700104 156.832230,243.972946 155.756912,244.728165 
	C156.804276,245.493103 157.807312,246.831833 158.907196,246.916794 
	C162.381592,247.185135 165.923584,247.273392 169.381775,246.898926 
	C175.061584,246.283890 179.930054,243.462784 181.588242,237.987549 
	C183.155853,232.811386 184.324142,225.733200 179.031494,222.777298 
	C171.368713,218.497742 168.561386,211.664291 165.318649,204.641922 
	C165.182755,204.347595 164.918259,204.112656 164.229980,203.313766 
M360.725586,243.662308 
	C364.140686,242.511261 367.555786,241.360229 370.159332,240.482712 
	C371.562469,241.475906 373.056549,242.533478 375.322815,244.137650 
	C375.322815,229.431915 375.322815,216.226364 375.322815,202.946899 
	C373.726837,202.946899 372.472900,202.946899 370.892944,202.946899 
	C370.892944,205.335022 370.892944,207.470535 370.892944,209.606049 
	C370.892944,211.853989 370.892944,214.101929 370.892944,216.725128 
	C364.648987,211.670883 360.019958,210.916183 355.172150,214.200027 
	C348.929596,218.428680 348.344269,224.867050 349.085571,231.552399 
	C349.804138,238.033096 353.404358,241.807022 360.725586,243.662308 
M249.564346,212.802948 
	C247.704636,213.980804 245.844925,215.158676 245.018066,215.682373 
	C242.994583,214.393112 241.426117,213.393768 239.268112,212.018814 
	C239.268112,226.938522 239.268112,240.496368 239.268112,254.424377 
	C240.977463,254.202118 242.346954,254.024063 244.027130,253.805618 
	C244.027130,248.826645 244.027130,244.273224 244.027130,239.427490 
	C249.825439,244.292831 254.823380,244.917191 259.660461,241.646713 
	C265.225739,237.883850 267.439545,228.388062 264.528809,220.764465 
	C262.169678,214.585449 257.527313,211.918839 249.564346,212.802948 
M340.127289,216.607437 
	C333.545898,209.832428 322.907043,211.110474 319.257629,219.974915 
	C321.162720,219.965134 322.867889,219.272797 324.636963,218.844269 
	C327.559174,218.136429 330.598785,216.943207 333.435699,217.272903 
	C334.803528,217.431854 335.822418,220.593719 336.999329,222.395798 
	C335.626740,223.267136 334.357819,224.514313 332.858948,224.927689 
	C330.151764,225.674271 327.262604,225.743225 324.530365,226.421188 
	C320.488708,227.424057 317.601318,229.619858 317.647308,234.320267 
	C317.694824,239.180069 320.149658,242.664520 324.780090,243.092422 
	C328.743958,243.458771 332.862885,242.147415 336.657471,241.614014 
	C337.963745,242.112274 339.593292,242.733856 342.614044,243.886078 
	C341.856903,234.025482 341.213013,225.640060 340.127289,216.607437 
M311.062897,234.242355 
	C311.347382,231.285156 312.054077,228.295517 311.829956,225.377380 
	C311.337891,218.970474 307.477325,214.330170 302.060211,212.863190 
	C294.808685,210.899460 288.285034,214.287369 285.690125,221.364685 
	C282.560181,229.901093 285.766022,239.527618 292.745117,242.549484 
	C299.852478,245.626892 306.781281,242.743301 311.062897,234.242355 
M212.435013,242.591385 
	C217.508926,244.182983 221.897629,243.208878 225.610977,238.373993 
	C225.828644,240.300888 225.966293,241.519348 226.111343,242.803436 
	C227.548508,242.803436 228.834290,242.803436 230.248337,242.803436 
	C230.248337,232.834488 230.248337,223.066177 230.248337,213.067932 
	C228.790588,213.067932 227.544800,213.067932 225.881317,213.067932 
	C225.881317,218.854691 225.977539,224.480576 225.852982,230.101562 
	C225.739166,235.238403 222.565155,238.748703 218.201157,238.893326 
	C214.004669,239.032394 211.487091,235.982361 211.383453,230.328415 
	C211.280151,224.693329 211.360794,219.054886 211.360794,213.206512 
	C209.694504,213.206512 208.371948,213.206512 206.899399,213.206512 
	C206.899399,220.211075 206.406616,226.899979 207.118469,233.458160 
	C207.447876,236.493011 210.126160,239.272903 212.435013,242.591385 
M150.358200,250.594925 
	C150.717560,243.259628 151.076920,235.924347 151.459976,228.105087 
	C152.913147,229.301468 153.910767,230.474396 155.179443,231.054398 
	C156.167892,231.506302 157.493622,231.220428 158.669464,231.262451 
	C158.433899,230.082825 158.586456,228.545395 157.890381,227.790283 
	C155.755890,225.474747 153.401138,223.322144 150.902954,221.404648 
	C150.074829,220.769012 148.110550,220.464859 147.423813,220.993668 
	C144.534683,223.218353 141.835892,225.722549 139.302597,228.351074 
	C138.766891,228.906937 139.220413,230.416214 139.218155,231.486191 
	C140.269821,231.423874 141.472107,231.662415 142.337982,231.228973 
	C143.648682,230.572830 144.725204,229.448898 146.696228,227.898300 
	C146.696228,235.109528 146.670059,241.087067 146.711319,247.064133 
	C146.724625,248.991791 146.273926,251.388611 150.358200,250.594925 
M272.837555,226.498474 
	C272.837555,231.927231 272.837555,237.355988 272.837555,243.099426 
	C274.746246,242.890137 275.980316,242.754807 277.335632,242.606201 
	C277.335632,230.285416 277.253632,218.295395 277.384369,206.307709 
	C277.424896,202.590668 275.945557,202.151596 272.837555,203.356400 
	C272.837555,210.861481 272.837555,218.180130 272.837555,226.498474 
z"/>
<path fill="#EBE9F3" opacity="1.000000" stroke="none" 
	d="
M164.471817,203.581909 
	C164.918259,204.112656 165.182755,204.347595 165.318649,204.641922 
	C168.561386,211.664291 171.368713,218.497742 179.031494,222.777298 
	C184.324142,225.733200 183.155853,232.811386 181.588242,237.987549 
	C179.930054,243.462784 175.061584,246.283890 169.381775,246.898926 
	C165.923584,247.273392 162.381592,247.185135 158.907196,246.916794 
	C157.807312,246.831833 156.804276,245.493103 155.756912,244.728149 
	C156.832230,243.972946 157.846756,242.700104 158.994949,242.565262 
	C161.788773,242.237106 164.650040,242.544708 167.474411,242.402740 
	C174.050583,242.072189 178.248306,238.227661 178.495621,232.458328 
	C178.732224,226.938431 175.124390,222.885117 168.736618,221.978394 
	C166.079803,221.601257 165.141037,220.631195 165.007599,217.877258 
	C164.542892,208.285278 158.931549,201.990067 150.474258,201.113022 
	C142.385223,200.274185 135.918900,205.194473 132.788254,214.079742 
	C132.259735,215.579773 130.372528,217.076324 128.781204,217.643845 
	C122.120178,220.019348 118.341164,225.256409 119.230042,231.519760 
	C120.186234,238.257385 125.155624,242.356537 132.455948,242.445801 
	C134.951157,242.476318 137.469635,242.361816 139.927155,242.690231 
	C140.705429,242.794235 141.649460,244.034210 141.879318,244.919968 
	C142.004974,245.404129 140.820480,246.795609 140.185135,246.823349 
	C132.729309,247.148926 125.110275,248.109406 119.269943,241.638306 
	C111.220047,232.719055 114.168961,218.986435 125.170181,214.107208 
	C126.636047,213.457077 128.364563,212.278122 128.938904,210.910446 
	C135.431580,195.449310 151.647675,191.896881 164.471817,203.581909 
z"/>
<path fill="#E5E4F2" opacity="1.000000" stroke="none" 
	d="
M360.339539,243.599762 
	C353.404358,241.807022 349.804138,238.033096 349.085571,231.552399 
	C348.344269,224.867050 348.929596,218.428680 355.172150,214.200027 
	C360.019958,210.916183 364.648987,211.670883 370.892944,216.725128 
	C370.892944,214.101929 370.892944,211.853989 370.892944,209.606049 
	C370.892944,207.470535 370.892944,205.335022 370.892944,202.946899 
	C372.472900,202.946899 373.726837,202.946899 375.322815,202.946899 
	C375.322815,216.226364 375.322815,229.431915 375.322815,244.137650 
	C373.056549,242.533478 371.562469,241.475906 370.159332,240.482712 
	C367.555786,241.360229 364.140686,242.511261 360.339539,243.599762 
M353.879181,224.968414 
	C353.958862,227.434647 353.677124,229.978760 354.188446,232.351974 
	C355.528503,238.571182 361.952179,241.452942 366.703613,238.013840 
	C370.811615,235.040482 371.211456,230.512405 370.841858,225.944611 
	C370.403473,220.527435 367.647949,217.276932 363.437592,216.789658 
	C358.489075,216.216965 356.022186,218.131699 353.879181,224.968414 
z"/>
<path fill="#EBE9F3" opacity="1.000000" stroke="none" 
	d="
M249.939926,212.701538 
	C257.527313,211.918839 262.169678,214.585449 264.528809,220.764465 
	C267.439545,228.388062 265.225739,237.883850 259.660461,241.646713 
	C254.823380,244.917191 249.825439,244.292831 244.027130,239.427490 
	C244.027130,244.273224 244.027130,248.826645 244.027130,253.805618 
	C242.346954,254.024063 240.977463,254.202118 239.268112,254.424377 
	C239.268112,240.496368 239.268112,226.938522 239.268112,212.018814 
	C241.426117,213.393768 242.994583,214.393112 245.018066,215.682373 
	C245.844925,215.158676 247.704636,213.980804 249.939926,212.701538 
M250.826248,239.181107 
	C255.982407,239.811325 258.929474,237.369476 260.316833,232.536118 
	C261.966431,226.789032 260.622833,220.341263 256.857849,218.015793 
	C253.447723,215.909485 249.831116,215.904297 246.777695,218.721634 
	C241.296066,223.779404 243.260239,235.658295 250.826248,239.181107 
z"/>
<path fill="#E9E8F3" opacity="1.000000" stroke="none" 
	d="
M340.348206,216.931046 
	C341.213013,225.640060 341.856903,234.025482 342.614044,243.886078 
	C339.593292,242.733856 337.963745,242.112274 336.657471,241.614014 
	C332.862885,242.147415 328.743958,243.458771 324.780090,243.092422 
	C320.149658,242.664520 317.694824,239.180069 317.647308,234.320267 
	C317.601318,229.619858 320.488708,227.424057 324.530365,226.421188 
	C327.262604,225.743225 330.151764,225.674271 332.858948,224.927689 
	C334.357819,224.514313 335.626740,223.267136 336.999329,222.395813 
	C335.822418,220.593719 334.803528,217.431854 333.435699,217.272903 
	C330.598785,216.943207 327.559174,218.136429 324.636963,218.844269 
	C322.867889,219.272797 321.162720,219.965134 319.257629,219.974915 
	C322.907043,211.110474 333.545898,209.832428 340.348206,216.931046 
M323.855347,238.027481 
	C327.343750,240.121643 331.282440,240.392853 333.975067,237.587051 
	C336.043182,235.431992 336.607788,231.834137 338.161072,228.110672 
	C333.409363,228.916702 330.272217,229.308533 327.203339,230.002380 
	C322.636658,231.034912 321.731934,232.892105 323.855347,238.027481 
z"/>
<path fill="#E9E8F3" opacity="1.000000" stroke="none" 
	d="
M310.960571,234.626785 
	C306.781281,242.743301 299.852478,245.626892 292.745117,242.549484 
	C285.766022,239.527618 282.560181,229.901093 285.690125,221.364685 
	C288.285034,214.287369 294.808685,210.899460 302.060211,212.863190 
	C307.477325,214.330170 311.337891,218.970474 311.829956,225.377380 
	C312.054077,228.295517 311.347382,231.285156 310.960571,234.626785 
M289.931335,223.693817 
	C289.822845,226.140427 289.286407,228.659592 289.686554,231.019989 
	C290.860443,237.944702 296.123230,241.144547 301.828613,238.736191 
	C305.569611,237.157043 307.636047,232.422043 307.092438,226.333603 
	C306.684723,221.766922 305.203583,217.808945 300.017426,216.865799 
	C295.016357,215.956299 291.746307,218.194000 289.931335,223.693817 
z"/>
<path fill="#F3F3F6" opacity="1.000000" stroke="none" 
	d="
M212.087280,242.379883 
	C210.126160,239.272903 207.447876,236.493011 207.118469,233.458160 
	C206.406616,226.899979 206.899399,220.211075 206.899399,213.206512 
	C208.371948,213.206512 209.694504,213.206512 211.360794,213.206512 
	C211.360794,219.054886 211.280151,224.693329 211.383453,230.328415 
	C211.487091,235.982361 214.004669,239.032394 218.201157,238.893326 
	C222.565155,238.748703 225.739166,235.238403 225.852982,230.101562 
	C225.977539,224.480576 225.881317,218.854691 225.881317,213.067932 
	C227.544800,213.067932 228.790588,213.067932 230.248337,213.067932 
	C230.248337,223.066177 230.248337,232.834488 230.248337,242.803436 
	C228.834290,242.803436 227.548508,242.803436 226.111343,242.803436 
	C225.966293,241.519348 225.828644,240.300888 225.610977,238.373993 
	C221.897629,243.208878 217.508926,244.182983 212.087280,242.379883 
z"/>
<path fill="#F3F3F6" opacity="1.000000" stroke="none" 
	d="
M149.963104,250.787567 
	C146.273926,251.388611 146.724625,248.991791 146.711319,247.064133 
	C146.670059,241.087067 146.696228,235.109528 146.696228,227.898300 
	C144.725204,229.448898 143.648682,230.572830 142.337982,231.228973 
	C141.472107,231.662415 140.269821,231.423874 139.218155,231.486191 
	C139.220413,230.416214 138.766891,228.906937 139.302597,228.351074 
	C141.835892,225.722549 144.534683,223.218353 147.423813,220.993668 
	C148.110550,220.464859 150.074829,220.769012 150.902954,221.404648 
	C153.401138,223.322144 155.755890,225.474747 157.890381,227.790283 
	C158.586456,228.545395 158.433899,230.082825 158.669464,231.262451 
	C157.493622,231.220428 156.167892,231.506302 155.179443,231.054398 
	C153.910767,230.474396 152.913147,229.301468 151.459976,228.105087 
	C151.076920,235.924347 150.717560,243.259628 149.963104,250.787567 
z"/>
<path fill="#F8F8F8" opacity="1.000000" stroke="none" 
	d="
M272.837555,225.998627 
	C272.837555,218.180130 272.837555,210.861481 272.837555,203.356400 
	C275.945557,202.151596 277.424896,202.590668 277.384369,206.307709 
	C277.253632,218.295395 277.335632,230.285416 277.335632,242.606201 
	C275.980316,242.754807 274.746246,242.890137 272.837555,243.099426 
	C272.837555,237.355988 272.837555,231.927231 272.837555,225.998627 
z"/>
<path fill="#1C05AE" opacity="1.000000" stroke="none" 
	d="
M353.938324,224.542633 
	C356.022186,218.131699 358.489075,216.216965 363.437592,216.789658 
	C367.647949,217.276932 370.403473,220.527435 370.841858,225.944611 
	C371.211456,230.512405 370.811615,235.040482 366.703613,238.013840 
	C361.952179,241.452942 355.528503,238.571182 354.188446,232.351974 
	C353.677124,229.978760 353.958862,227.434647 353.938324,224.542633 
z"/>
<path fill="#1C05AE" opacity="1.000000" stroke="none" 
	d="
M250.421494,239.114792 
	C243.260239,235.658295 241.296066,223.779404 246.777695,218.721634 
	C249.831116,215.904297 253.447723,215.909485 256.857849,218.015793 
	C260.622833,220.341263 261.966431,226.789032 260.316833,232.536118 
	C258.929474,237.369476 255.982407,239.811325 250.421494,239.114792 
z"/>
<path fill="#1C05AE" opacity="1.000000" stroke="none" 
	d="
M323.549316,237.772186 
	C321.731934,232.892105 322.636658,231.034912 327.203339,230.002380 
	C330.272217,229.308533 333.409363,228.916702 338.161072,228.110672 
	C336.607788,231.834137 336.043182,235.431992 333.975067,237.587051 
	C331.282440,240.392853 327.343750,240.121643 323.549316,237.772186 
z"/>
<path fill="#1C05AE" opacity="1.000000" stroke="none" 
	d="
M290.005310,223.304474 
	C291.746307,218.194000 295.016357,215.956299 300.017426,216.865799 
	C305.203583,217.808945 306.684723,221.766922 307.092438,226.333603 
	C307.636047,232.422043 305.569611,237.157043 301.828613,238.736191 
	C296.123230,241.144547 290.860443,237.944702 289.686554,231.019989 
	C289.286407,228.659592 289.822845,226.140427 290.005310,223.304474 
z"/>
</svg>
