<svg version="1.1" id="Layer_1" xmlns="http://www.w3.org/2000/svg" xmlns:xlink="http://www.w3.org/1999/xlink" x="0px" y="0px"
	 width="100%" viewBox="0 0 373 81" enable-background="new 0 0 373 81" xml:space="preserve">
<path fill="none" opacity="1.000000" stroke="none" 
	d="
M332.000000,1.000003 
	C335.692902,1.000000 339.385834,1.000000 343.623810,1.395513 
	C349.827515,2.127897 355.486145,2.464767 361.464722,2.940078 
	C368.364288,5.423864 371.057129,10.096539 369.839935,17.292091 
	C369.394989,18.587116 369.039703,19.547752 369.040436,20.508127 
	C369.053436,37.858589 369.109406,55.209019 369.180084,72.894394 
	C367.576599,75.189468 365.949188,77.149605 363.971161,79.132774 
	C363.039276,79.519524 362.458008,79.883247 361.818359,80.297348 
	C361.760010,80.347733 361.642944,80.247414 361.250793,80.203690 
	C359.905792,80.773315 358.952881,81.386658 358.000000,82.000000 
	C333.979095,82.000000 309.958221,82.000000 285.315918,81.639366 
	C279.375336,79.611786 274.079590,78.454071 269.000000,82.000000 
	C263.645081,82.000000 258.290131,82.000000 252.317474,81.642487 
	C247.674896,79.479095 243.707169,78.607796 240.000000,82.000000 
	C235.643097,82.000000 231.286194,82.000000 226.311523,81.638733 
	C224.343048,80.853294 222.992737,80.059563 221.641571,80.058121 
	C163.284622,79.995743 104.927559,79.988510 46.570702,80.086624 
	C45.046066,80.089188 43.523518,81.334335 42.000000,82.000000 
	C32.979103,82.000000 23.958208,82.000000 14.395906,81.674210 
	C9.264383,78.428940 4.661313,75.518890 5.173143,68.730774 
	C5.608613,67.590927 5.951212,66.791138 5.953073,65.990570 
	C5.992053,49.220802 6.013593,32.450874 5.957974,15.681242 
	C5.953808,14.425115 5.344011,13.170996 5.129407,11.589891 
	C6.787844,6.219359 10.458687,3.195940 15.000000,1.000000 
	C27.020895,1.000000 39.041790,1.000000 51.685089,1.360967 
	C53.652332,2.146279 54.995811,2.935397 56.342205,2.940390 
	C77.377403,3.018408 98.413231,3.036366 119.447945,2.909298 
	C120.969086,2.900109 122.482819,1.665082 124.000000,1.000001 
	C125.066673,1.000000 126.133339,1.000000 127.753830,1.360912 
	C129.658493,2.146203 131.008987,2.940581 132.360229,2.941853 
	C197.382553,3.003078 262.404968,3.009409 327.427185,2.912805 
	C328.952393,2.910539 330.475769,1.665416 332.000000,1.000003 
M162.923035,32.934875 
	C162.959824,38.292633 162.996613,43.650387 162.716370,49.457951 
	C162.637817,49.993618 162.559265,50.529285 162.081787,51.609997 
	C161.616837,52.377296 161.151901,53.144592 160.012451,54.103939 
	C153.076096,57.591496 149.031967,55.270706 148.898422,47.648083 
	C148.811005,42.660271 148.976501,37.665035 148.753387,32.685459 
	C148.715027,31.829538 147.326538,30.429298 146.505386,30.387512 
	C145.722336,30.347662 144.162704,31.744183 144.151947,32.525883 
	C144.060486,39.168442 143.690399,45.882648 144.492889,52.442142 
	C145.411316,59.949112 153.432327,62.833939 159.790939,58.540554 
	C160.778519,57.873726 161.961288,57.495998 162.918610,57.756985 
	C163.936172,58.440811 164.953751,59.124638 166.754974,59.796043 
	C166.997574,50.608776 167.276657,41.422020 167.405869,32.233154 
	C167.415115,31.576803 166.207291,30.283962 165.772507,30.367325 
	C164.813095,30.551273 163.985962,31.425045 162.923035,32.934875 
M69.452484,25.075533 
	C68.261787,28.837616 66.100311,31.273472 62.256931,33.098629 
	C56.647942,35.762241 53.827564,40.864456 53.887810,47.345375 
	C54.000713,59.491203 67.936745,68.727402 79.112106,63.925674 
	C79.840607,63.612663 80.709045,62.446861 80.636688,61.771572 
	C80.560478,61.060352 79.488670,59.989471 78.753326,59.901749 
	C76.451508,59.627159 74.103081,59.749954 71.772987,59.704552 
	C64.304054,59.559021 59.327831,55.511429 58.411434,48.844666 
	C57.548950,42.570095 61.307621,37.545673 68.234589,35.128998 
	C69.638657,34.639153 71.220329,33.130379 71.691414,31.742239 
	C74.762917,22.691368 81.003319,18.141756 89.510918,19.132832 
	C97.185173,20.026831 102.732689,26.295059 103.166641,35.065922 
	C103.309540,37.954330 104.114891,39.033234 107.101990,39.459702 
	C113.340561,40.350391 116.770531,44.758816 116.314789,50.427372 
	C115.885643,55.765171 111.880142,59.320499 105.730141,59.662567 
	C103.072021,59.810413 100.366203,59.462986 97.748558,59.823490 
	C96.437187,60.004089 95.275055,61.268295 94.045433,62.042423 
	C95.337509,62.752357 96.574562,63.909641 97.933395,64.076759 
	C100.558975,64.399666 103.255302,64.230103 105.918655,64.147392 
	C113.421677,63.914375 119.458809,59.183113 120.444290,52.834385 
	C121.728462,44.561459 118.442337,38.922249 110.901306,35.664822 
	C109.442635,35.034737 107.839050,33.219120 107.529388,31.700212 
	C105.702988,22.741695 100.515762,16.907024 91.691338,15.025865 
	C82.443199,13.054379 75.015900,16.418018 69.452484,25.075533 
M196.805023,32.560093 
	C190.355301,28.633968 187.242599,28.847261 181.123093,33.327694 
	C179.873093,32.220490 178.755066,31.230181 177.637039,30.239874 
	C176.969269,31.491888 175.739120,32.736172 175.721786,33.997124 
	C175.568878,45.122036 175.702789,56.250648 175.587585,67.376465 
	C175.552307,70.784515 176.601379,72.044937 180.513641,70.386391 
	C180.513641,66.227737 180.513641,61.881039 180.513641,57.210476 
	C190.943024,63.572742 199.882401,59.812119 201.640472,48.775600 
	C202.562469,42.987625 201.744888,37.494453 196.805023,32.560093 
M283.339081,43.794281 
	C283.230225,50.244816 284.337891,56.258556 290.758484,59.461292 
	C295.708221,61.930325 300.405853,61.024372 303.644012,57.432236 
	C305.574432,58.616611 307.123749,59.567146 309.725433,61.163364 
	C309.725433,47.291676 309.771088,35.024673 309.622925,22.760014 
	C309.613068,21.940897 308.133911,21.139530 307.338165,20.329901 
	C306.529388,21.281622 305.112274,22.179983 305.023254,23.194839 
	C304.728271,26.557734 304.911865,29.962601 304.911865,34.611935 
	C300.067688,29.072592 295.180878,28.780302 290.167480,31.403280 
	C285.642578,33.770679 283.960358,38.103455 283.339081,43.794281 
M255.362000,33.912590 
	C255.161621,35.032898 254.961243,36.153210 254.760849,37.273518 
	C256.227203,37.145294 257.729370,37.176323 259.152496,36.856041 
	C262.210602,36.167789 265.229462,34.764347 268.261200,34.773003 
	C269.431732,34.776337 270.854248,37.717773 271.548157,39.552738 
	C271.693817,39.937965 269.267731,41.764305 267.811981,42.187023 
	C264.960632,43.014965 261.914001,43.149662 259.028839,43.886791 
	C255.091232,44.892799 252.670197,47.306656 252.762756,51.695007 
	C252.855392,56.085823 254.984344,59.459297 259.168030,59.993221 
	C263.133911,60.499348 267.295929,59.468098 271.934662,59.063873 
	C272.723083,59.277004 274.373322,59.723103 276.478699,60.292244 
	C276.478699,52.512157 276.712372,45.708820 276.403137,38.930256 
	C276.165344,33.718449 273.076385,30.183342 267.951813,30.258810 
	C263.911469,30.318312 259.898926,32.263298 255.362000,33.912590 
M223.595627,55.844372 
	C225.932922,57.322975 228.093811,59.386070 230.644989,60.155964 
	C235.634216,61.661613 240.316772,60.346951 243.702621,56.237183 
	C248.009537,51.009415 248.225113,44.924419 246.212799,38.776554 
	C244.277802,32.864807 239.340057,29.683029 233.228165,29.917330 
	C227.463013,30.138336 222.809265,33.686348 221.187485,39.435894 
	C219.637390,44.931328 219.948196,50.299465 223.595627,55.844372 
M78.050812,45.531548 
	C78.085915,46.675137 78.121017,47.818722 78.156113,48.962315 
	C80.318878,48.295933 82.481636,47.629555 85.042915,46.840385 
	C85.042915,51.931976 84.836128,57.218338 85.150764,62.473476 
	C85.266922,64.413513 86.611191,66.280014 87.395332,68.180054 
	C88.176765,66.264557 89.224403,64.407234 89.659592,62.416058 
	C90.041924,60.666733 89.737778,58.767471 89.737602,56.934429 
	C89.737282,53.451973 89.737511,49.969513 89.737511,45.591610 
	C91.329651,46.899666 91.784348,47.549892 92.366821,47.698177 
	C93.909737,48.090958 95.507919,48.266663 97.084106,48.528740 
	C96.551476,47.129261 96.409630,45.308846 95.425751,44.395439 
	C85.628365,35.299870 88.562881,36.154377 79.634041,44.005806 
	C79.258774,44.335789 78.901352,44.686047 78.050812,45.531548 
M213.353760,39.500610 
	C213.350189,34.016071 213.443604,28.528040 213.246536,23.050457 
	C213.214081,22.148743 211.906799,21.292891 211.188690,20.415846 
	C210.395844,21.211668 208.921921,21.999325 208.912277,22.804539 
	C208.765427,35.055210 208.810165,47.308182 208.810165,59.453709 
	C212.404602,60.762325 213.463608,59.579063 213.387512,56.454300 
	C213.258072,51.139107 213.352737,45.818455 213.353760,39.500610 
z"/>
<path fill="#210CB0" opacity="1.000000" stroke="none" 
	d="
M331.531342,1.000003 
	C330.475769,1.665416 328.952393,2.910539 327.427185,2.912805 
	C262.404968,3.009409 197.382553,3.003078 132.360229,2.941853 
	C131.008987,2.940581 129.658493,2.146203 128.153824,1.360912 
	C195.687561,1.000000 263.375122,1.000000 331.531342,1.000003 
z"/>
<path fill="#040311" opacity="1.000000" stroke="none" 
	d="
M4.921592,69.070473 
	C4.661313,75.518890 9.264383,78.428940 13.927250,81.674210 
	C9.684735,82.000000 5.369471,82.000000 1.053594,81.999985 
	C1.052982,54.999958 1.052982,27.999947 1.052982,1.000000 
	C5.421224,1.000000 9.736484,1.000000 14.525872,1.000000 
	C10.458687,3.195940 6.787844,6.219359 5.032924,12.060198 
	C4.855721,31.594528 4.888657,50.332500 4.921592,69.070473 
z"/>
<path fill="#030210" opacity="1.000000" stroke="none" 
	d="
M370.095306,16.957581 
	C371.057129,10.096539 368.364288,5.423864 361.445923,2.639646 
	C361.071472,1.800516 361.035736,1.400257 361.000000,1.000000 
	C365.314880,1.000000 369.629791,1.000000 373.947876,1.000014 
	C373.951111,28.000034 373.951111,55.000042 373.951111,82.000000 
	C369.919250,82.000000 365.936279,82.000000 361.518982,81.688141 
	C361.270782,80.999992 361.456848,80.623703 361.642944,80.247414 
	C361.642944,80.247414 361.760010,80.347733 362.165894,80.260880 
	C363.155090,79.819260 363.738434,79.464500 364.321777,79.109741 
	C365.949188,77.149605 367.576599,75.189468 369.490417,72.539948 
	C369.882996,53.552902 369.989136,35.255241 370.095306,16.957581 
z"/>
<path fill="#200BAF" opacity="1.000000" stroke="none" 
	d="
M42.468658,82.000000 
	C43.523518,81.334335 45.046066,80.089188 46.570702,80.086624 
	C104.927559,79.988510 163.284622,79.995743 221.641571,80.058121 
	C222.992737,80.059563 224.343048,80.853294 225.846878,81.638733 
	C164.979111,82.000000 103.958214,82.000000 42.468658,82.000000 
z"/>
<path fill="#210CB0" opacity="1.000000" stroke="none" 
	d="
M123.531342,1.000001 
	C122.482819,1.665082 120.969086,2.900109 119.447945,2.909298 
	C98.413231,3.036366 77.377403,3.018408 56.342205,2.940390 
	C54.995811,2.935397 53.652332,2.146279 52.153748,1.360967 
	C75.687561,1.000000 99.375122,1.000000 123.531342,1.000001 
z"/>
<path fill="#110758" opacity="1.000000" stroke="none" 
	d="
M360.532410,1.000000 
	C361.035736,1.400257 361.071472,1.800516 361.125977,2.501205 
	C355.486145,2.464767 349.827515,2.127897 344.084442,1.395513 
	C349.354919,1.000000 354.709869,1.000000 360.532410,1.000000 
z"/>
<path fill="#200BAF" opacity="1.000000" stroke="none" 
	d="
M269.466858,82.000000 
	C274.079590,78.454071 279.375336,79.611786 284.847229,81.639366 
	C279.977905,82.000000 274.955811,82.000000 269.466858,82.000000 
z"/>
<path fill="#200BAF" opacity="1.000000" stroke="none" 
	d="
M240.460632,82.000000 
	C243.707169,78.607796 247.674896,79.479095 251.849884,81.642487 
	C248.307098,82.000000 244.614182,82.000000 240.460632,82.000000 
z"/>
<path fill="#1E0FA2" opacity="1.000000" stroke="none" 
	d="
M361.250793,80.203690 
	C361.456848,80.623703 361.270782,80.999992 361.042358,81.688141 
	C360.250000,82.000000 359.500000,82.000000 358.375000,82.000000 
	C358.952881,81.386658 359.905792,80.773315 361.250793,80.203690 
z"/>
<path fill="#E8E7F6" opacity="1.000000" stroke="none" 
	d="
M69.643555,24.759691 
	C75.015900,16.418018 82.443199,13.054379 91.691338,15.025865 
	C100.515762,16.907024 105.702988,22.741695 107.529388,31.700212 
	C107.839050,33.219120 109.442635,35.034737 110.901306,35.664822 
	C118.442337,38.922249 121.728462,44.561459 120.444290,52.834385 
	C119.458809,59.183113 113.421677,63.914375 105.918655,64.147392 
	C103.255302,64.230103 100.558975,64.399666 97.933395,64.076759 
	C96.574562,63.909641 95.337509,62.752357 94.045433,62.042419 
	C95.275055,61.268295 96.437187,60.004089 97.748558,59.823490 
	C100.366203,59.462986 103.072021,59.810413 105.730141,59.662567 
	C111.880142,59.320499 115.885643,55.765171 116.314789,50.427372 
	C116.770531,44.758816 113.340561,40.350391 107.101990,39.459702 
	C104.114891,39.033234 103.309540,37.954330 103.166641,35.065922 
	C102.732689,26.295059 97.185173,20.026831 89.510918,19.132832 
	C81.003319,18.141756 74.762917,22.691368 71.691414,31.742239 
	C71.220329,33.130379 69.638657,34.639153 68.234589,35.128998 
	C61.307621,37.545673 57.548950,42.570095 58.411434,48.844666 
	C59.327831,55.511429 64.304054,59.559021 71.772987,59.704552 
	C74.103081,59.749954 76.451508,59.627159 78.753326,59.901749 
	C79.488670,59.989471 80.560478,61.060352 80.636688,61.771572 
	C80.709045,62.446861 79.840607,63.612663 79.112106,63.925674 
	C67.936745,68.727402 54.000713,59.491203 53.887810,47.345375 
	C53.827564,40.864456 56.647942,35.762241 62.256931,33.098629 
	C66.100311,31.273472 68.261787,28.837616 69.643555,24.759691 
z"/>
<path fill="#EAE8F7" opacity="1.000000" stroke="none" 
	d="
M197.087067,32.809776 
	C201.744888,37.494453 202.562469,42.987625 201.640472,48.775600 
	C199.882401,59.812119 190.943024,63.572742 180.513641,57.210476 
	C180.513641,61.881039 180.513641,66.227737 180.513641,70.386391 
	C176.601379,72.044937 175.552307,70.784515 175.587585,67.376465 
	C175.702789,56.250648 175.568878,45.122036 175.721786,33.997124 
	C175.739120,32.736172 176.969269,31.491888 177.637039,30.239872 
	C178.755066,31.230181 179.873093,32.220490 181.123093,33.327694 
	C187.242599,28.847261 190.355301,28.633968 197.087067,32.809776 
M189.347214,56.350464 
	C193.907318,55.913956 196.047073,52.853947 196.786926,48.844566 
	C197.647751,44.179718 197.677917,39.401043 193.669586,35.943707 
	C190.702332,33.384331 187.061554,33.206322 184.039444,35.634212 
	C179.784576,39.052460 179.667862,43.957653 180.628708,48.868164 
	C181.467133,53.152962 183.676941,56.208794 189.347214,56.350464 
z"/>
<path fill="#E2E0F4" opacity="1.000000" stroke="none" 
	d="
M283.382751,43.376274 
	C283.960358,38.103455 285.642578,33.770679 290.167480,31.403280 
	C295.180878,28.780302 300.067688,29.072592 304.911865,34.611935 
	C304.911865,29.962601 304.728271,26.557734 305.023254,23.194839 
	C305.112274,22.179983 306.529388,21.281622 307.338165,20.329905 
	C308.133911,21.139530 309.613068,21.940897 309.622925,22.760014 
	C309.771088,35.024673 309.725433,47.291676 309.725433,61.163364 
	C307.123749,59.567146 305.574432,58.616611 303.644012,57.432236 
	C300.405853,61.024372 295.708221,61.930325 290.758484,59.461292 
	C284.337891,56.258556 283.230225,50.244816 283.382751,43.376274 
M297.342468,56.321335 
	C302.198242,55.828304 304.102814,52.418545 304.713074,48.252590 
	C305.396820,43.585014 305.561310,38.359085 301.010468,35.745075 
	C298.703735,34.420074 294.229584,34.506653 291.986298,35.928627 
	C287.429718,38.817013 287.498230,44.074684 288.511688,48.949688 
	C289.392731,53.187729 291.714081,56.198364 297.342468,56.321335 
z"/>
<path fill="#E4E3F5" opacity="1.000000" stroke="none" 
	d="
M255.618011,33.641720 
	C259.898926,32.263298 263.911469,30.318312 267.951813,30.258810 
	C273.076385,30.183342 276.165344,33.718449 276.403137,38.930256 
	C276.712372,45.708820 276.478699,52.512157 276.478699,60.292244 
	C274.373322,59.723103 272.723083,59.277004 271.934662,59.063873 
	C267.295929,59.468098 263.133911,60.499348 259.168030,59.993221 
	C254.984344,59.459297 252.855392,56.085823 252.762756,51.695007 
	C252.670197,47.306656 255.091232,44.892799 259.028839,43.886791 
	C261.914001,43.149662 264.960632,43.014965 267.811981,42.187023 
	C269.267731,41.764305 271.693817,39.937965 271.548157,39.552738 
	C270.854248,37.717773 269.431732,34.776337 268.261200,34.773003 
	C265.229462,34.764347 262.210602,36.167789 259.152496,36.856041 
	C257.729370,37.176323 256.227203,37.145294 254.760864,37.273521 
	C254.961243,36.153210 255.161621,35.032898 255.618011,33.641720 
M269.222687,54.699581 
	C270.356262,52.022366 271.489807,49.345154 273.066315,45.621845 
	C268.868256,46.207729 266.418274,46.483688 263.993347,46.904064 
	C260.645782,47.484383 256.709229,48.052959 257.697906,52.724590 
	C258.605927,57.015148 262.430573,56.712967 265.839294,56.220406 
	C266.792206,56.082714 267.682617,55.512413 269.222687,54.699581 
z"/>
<path fill="#E7E5F6" opacity="1.000000" stroke="none" 
	d="
M223.372025,55.550625 
	C219.948196,50.299465 219.637390,44.931328 221.187485,39.435894 
	C222.809265,33.686348 227.463013,30.138336 233.228165,29.917330 
	C239.340057,29.683029 244.277802,32.864807 246.212799,38.776554 
	C248.225113,44.924419 248.009537,51.009415 243.702621,56.237183 
	C240.316772,60.346951 235.634216,61.661613 230.644989,60.155964 
	C228.093811,59.386070 225.932922,57.322975 223.372025,55.550625 
M225.298676,42.200813 
	C225.510712,44.991837 225.335098,47.883614 226.028030,50.549648 
	C227.003098,54.301170 229.772766,56.325672 233.784668,56.364841 
	C237.814072,56.404179 240.524170,54.344978 241.651184,50.662540 
	C242.362595,48.338070 242.666016,45.728577 242.445312,43.311501 
	C241.947937,37.864326 239.035156,34.558201 234.797470,34.205132 
	C229.563126,33.769028 226.813431,36.709312 225.298676,42.200813 
z"/>
<path fill="#E1E0F3" opacity="1.000000" stroke="none" 
	d="
M78.293213,45.279205 
	C78.901352,44.686047 79.258774,44.335789 79.634041,44.005806 
	C88.562881,36.154377 85.628365,35.299870 95.425751,44.395439 
	C96.409630,45.308846 96.551476,47.129261 97.084106,48.528740 
	C95.507919,48.266663 93.909737,48.090958 92.366821,47.698177 
	C91.784348,47.549892 91.329651,46.899666 89.737511,45.591610 
	C89.737511,49.969513 89.737282,53.451973 89.737602,56.934429 
	C89.737778,58.767471 90.041924,60.666733 89.659592,62.416058 
	C89.224403,64.407234 88.176765,66.264557 87.395325,68.180054 
	C86.611191,66.280014 85.266922,64.413513 85.150764,62.473476 
	C84.836128,57.218338 85.042915,51.931976 85.042915,46.840385 
	C82.481636,47.629555 80.318878,48.295933 78.156113,48.962311 
	C78.121017,47.818722 78.085915,46.675137 78.293213,45.279205 
z"/>
<path fill="#E3E2F4" opacity="1.000000" stroke="none" 
	d="
M163.053802,56.984577 
	C161.961288,57.495998 160.778519,57.873726 159.790939,58.540554 
	C153.432327,62.833939 145.411316,59.949112 144.492889,52.442142 
	C143.690399,45.882648 144.060486,39.168442 144.151947,32.525883 
	C144.162704,31.744183 145.722336,30.347662 146.505386,30.387512 
	C147.326538,30.429298 148.715027,31.829538 148.753387,32.685459 
	C148.976501,37.665035 148.811005,42.660271 148.898422,47.648083 
	C149.031967,55.270706 153.076096,57.591496 160.673126,54.057487 
	C161.907150,55.002213 162.480484,55.993393 163.053802,56.984577 
z"/>
<path fill="#F2F1FA" opacity="1.000000" stroke="none" 
	d="
M213.353500,40.000355 
	C213.352737,45.818455 213.258072,51.139107 213.387512,56.454300 
	C213.463608,59.579063 212.404602,60.762325 208.810165,59.453709 
	C208.810165,47.308182 208.765427,35.055210 208.912277,22.804539 
	C208.921921,21.999325 210.395844,21.211668 211.188690,20.415844 
	C211.906799,21.292891 213.214081,22.148743 213.246536,23.050457 
	C213.443604,28.528040 213.350189,34.016071 213.353500,40.000355 
z"/>
<path fill="#FEFEFF" opacity="1.000000" stroke="none" 
	d="
M162.986206,57.370781 
	C162.480484,55.993393 161.907150,55.002213 161.010391,53.961460 
	C161.151901,53.144592 161.616837,52.377296 162.515427,51.277756 
	C162.977173,50.299728 163.005280,49.653934 163.033386,49.008144 
	C162.996613,43.650387 162.959824,38.292633 163.408173,32.519062 
	C164.605698,33.717552 165.889847,35.316799 165.932800,36.948723 
	C166.133270,44.563698 165.991028,52.187695 165.971313,59.808464 
	C164.953751,59.124638 163.936172,58.440811 162.986206,57.370781 
z"/>
<path fill="#E3E2F4" opacity="1.000000" stroke="none" 
	d="
M166.363144,59.802254 
	C165.991028,52.187695 166.133270,44.563698 165.932800,36.948723 
	C165.889847,35.316799 164.605698,33.717552 163.499084,32.060307 
	C163.985962,31.425045 164.813095,30.551273 165.772507,30.367325 
	C166.207291,30.283962 167.415115,31.576803 167.405869,32.233154 
	C167.276657,41.422020 166.997574,50.608776 166.363144,59.802254 
z"/>
<path fill="#2917B3" opacity="1.000000" stroke="none" 
	d="
M5.173143,68.730774 
	C4.888657,50.332500 4.855721,31.594528 4.919268,12.386250 
	C5.344011,13.170996 5.953808,14.425115 5.957974,15.681242 
	C6.013593,32.450874 5.992053,49.220802 5.953073,65.990570 
	C5.951212,66.791138 5.608613,67.590927 5.173143,68.730774 
z"/>
<path fill="#1E0FA2" opacity="1.000000" stroke="none" 
	d="
M369.839935,17.292091 
	C369.989136,35.255241 369.882996,53.552902 369.466492,72.205009 
	C369.109406,55.209019 369.053436,37.858589 369.040436,20.508127 
	C369.039703,19.547752 369.394989,18.587116 369.839935,17.292091 
z"/>
<path fill="#E3E2F4" opacity="1.000000" stroke="none" 
	d="
M162.874878,49.233047 
	C163.005280,49.653934 162.977173,50.299728 162.714890,51.005234 
	C162.559265,50.529285 162.637817,49.993618 162.874878,49.233047 
z"/>
<path fill="#1E0FA2" opacity="1.000000" stroke="none" 
	d="
M363.971161,79.132767 
	C363.738434,79.464500 363.155090,79.819260 362.224243,80.210495 
	C362.458008,79.883247 363.039276,79.519524 363.971161,79.132767 
z"/>
<path fill="#200BB0" opacity="1.000000" stroke="none" 
	d="
M188.935883,56.367687 
	C183.676941,56.208794 181.467133,53.152962 180.628708,48.868164 
	C179.667862,43.957653 179.784576,39.052460 184.039444,35.634212 
	C187.061554,33.206322 190.702332,33.384331 193.669586,35.943707 
	C197.677917,39.401043 197.647751,44.179718 196.786926,48.844566 
	C196.047073,52.853947 193.907318,55.913956 188.935883,56.367687 
z"/>
<path fill="#200BAF" opacity="1.000000" stroke="none" 
	d="
M296.932373,56.333027 
	C291.714081,56.198364 289.392731,53.187729 288.511688,48.949688 
	C287.498230,44.074684 287.429718,38.817013 291.986298,35.928627 
	C294.229584,34.506653 298.703735,34.420074 301.010468,35.745075 
	C305.561310,38.359085 305.396820,43.585014 304.713074,48.252590 
	C304.102814,52.418545 302.198242,55.828304 296.932373,56.333027 
z"/>
<path fill="#2816B2" opacity="1.000000" stroke="none" 
	d="
M268.912170,54.920074 
	C267.682617,55.512413 266.792206,56.082714 265.839294,56.220406 
	C262.430573,56.712967 258.605927,57.015148 257.697906,52.724590 
	C256.709229,48.052959 260.645782,47.484383 263.993347,46.904064 
	C266.418274,46.483688 268.868256,46.207729 273.066315,45.621845 
	C271.489807,49.345154 270.356262,52.022366 268.912170,54.920074 
z"/>
<path fill="#210CB0" opacity="1.000000" stroke="none" 
	d="
M225.397888,41.807999 
	C226.813431,36.709312 229.563126,33.769028 234.797470,34.205132 
	C239.035156,34.558201 241.947937,37.864326 242.445312,43.311501 
	C242.666016,45.728577 242.362595,48.338070 241.651184,50.662540 
	C240.524170,54.344978 237.814072,56.404179 233.784668,56.364841 
	C229.772766,56.325672 227.003098,54.301170 226.028030,50.549648 
	C225.335098,47.883614 225.510712,44.991837 225.397888,41.807999 
z"/>
</svg>
